<svg xmlns="http://www.w3.org/2000/svg" xmlns:xlink="http://www.w3.org/1999/xlink" id="Layer_1" x="0px" y="0px" viewBox="0 0 200 65.13" style="enable-background:new 0 0 200 65.13;" xml:space="preserve"><style type="text/css">	.st0{fill:#FFFFFF;}	.st1{fill:#58595B;}	.st2{fill:#EC1C24;}	.st3{fill:#E30613;}	.st4{fill:#575756;}</style><g>	<ellipse class="st0" cx="158.81" cy="32.79" rx="30.97" ry="32.34"></ellipse>	<g>		<path class="st1" d="M156.43,26.31c-0.01,0.09-0.04,0.18-0.04,0.27c-0.01,2.03-0.01,4.07-0.01,6.1c0,3.38,0,6.76-0.01,10.14   c0,1.67-0.01,3.34-0.02,5c0,0.46-0.01,0.92-0.02,1.38c-0.01,0.57-0.27,0.86-0.81,0.87c-1.18,0.01-2.36,0-3.54,0   c-0.1,0-0.2,0-0.33,0c-0.01,0.13-0.02,0.23-0.02,0.34c0,2.7-0.01,5.4-0.01,8.11c0,0.4-0.07,0.77-0.3,1.11   c-0.13,0.19-0.29,0.26-0.51,0.22c-0.46-0.08-0.83-0.35-1.17-0.65c-1.99-1.72-3.99-3.44-5.98-5.17c-1.79-1.55-3.57-3.09-5.36-4.64   c-0.04-0.03-0.07-0.07-0.11-0.1c-0.54-0.51-0.6-0.86-0.22-1.5c0.77-1.3,1.44-2.66,1.99-4.08c0.97-2.51,1.62-5.1,1.9-7.79   c0.21-2,0.23-4.01,0.02-6c-0.3-2.83-0.98-5.56-2.05-8.17c-0.58-1.4-1.2-2.79-1.99-4.07c-0.31-0.51-0.24-0.91,0.24-1.32   c1.24-1.07,2.48-2.13,3.72-3.2c2.73-2.33,5.46-4.67,8.2-6.99c0.25-0.21,0.58-0.31,0.89-0.43c0.24-0.09,0.45,0.01,0.6,0.24   c0.2,0.32,0.26,0.67,0.26,1.04c-0.01,2.7-0.02,5.4-0.02,8.1c0,0.39,0,0.39,0.36,0.39c1.08,0,2.16-0.01,3.24-0.01   c0.71,0,0.85,0.09,1.11,0.74C156.43,19.6,156.43,22.96,156.43,26.31z"></path>		<path class="st2" d="M161.19,39.28c0.01-0.09,0.04-0.18,0.04-0.27c0.01-2.03,0.01-4.07,0.01-6.1c0-3.38,0-6.76,0.01-10.14   c0-1.67,0.01-3.34,0.02-5c0-0.46,0.01-0.92,0.02-1.38c0.01-0.57,0.27-0.86,0.81-0.87c1.18-0.01,2.36,0,3.54,0c0.1,0,0.2,0,0.33,0   c0.01-0.13,0.02-0.23,0.02-0.34c0-2.7,0.01-5.4,0.01-8.11c0-0.4,0.07-0.77,0.3-1.11c0.13-0.19,0.29-0.26,0.51-0.22   c0.46,0.08,0.83,0.35,1.17,0.65c1.99,1.72,3.99,3.44,5.98,5.17c1.79,1.55,3.57,3.09,5.36,4.64c0.04,0.03,0.07,0.07,0.11,0.1   c0.54,0.51,0.6,0.86,0.22,1.5c-0.77,1.3-1.44,2.66-1.99,4.08c-0.97,2.51-1.62,5.1-1.9,7.79c-0.21,2-0.23,4.01-0.02,6   c0.3,2.83,0.98,5.56,2.05,8.17c0.58,1.4,1.2,2.79,1.99,4.07c0.31,0.51,0.24,0.91-0.24,1.32c-1.24,1.07-2.48,2.13-3.72,3.2   c-2.73,2.33-5.46,4.67-8.2,6.99c-0.25,0.21-0.58,0.31-0.89,0.43c-0.24,0.09-0.45-0.01-0.6-0.24c-0.2-0.32-0.26-0.67-0.26-1.04   c0.01-2.7,0.02-5.4,0.02-8.1c0-0.39,0-0.39-0.36-0.39c-1.08,0-2.16,0.01-3.24,0.01c-0.71,0-0.85-0.09-1.11-0.74   C161.19,45.98,161.19,42.63,161.19,39.28z"></path>	</g></g><g>	<path class="st3" d="M14.39,13.09c0.15,0.07,0.3,0.13,0.45,0.17c0.15,0.04,0.28,0.07,0.4,0.09c0.12,0.02,0.22,0.03,0.3,0.03  c0.08,0,0.13,0.01,0.15,0.01c0.07,0,0.16,0,0.27-0.01c0.11-0.01,0.22-0.02,0.35-0.04s0.25-0.05,0.39-0.09  c0.13-0.04,0.27-0.09,0.4-0.16c0.36-0.18,0.63-0.42,0.82-0.73c0.19-0.31,0.28-0.67,0.28-1.09s-0.12-0.88-0.37-1.37  c-0.25-0.5-0.62-1.03-1.12-1.59c-0.18-0.2-0.35-0.38-0.51-0.54c-0.17-0.17-0.32-0.31-0.45-0.43C15.6,7.2,15.5,7.11,15.41,7.04  s-0.13-0.11-0.13-0.12l-0.77,0.94c0,0,0.04,0.04,0.11,0.1c0.07,0.06,0.17,0.15,0.29,0.26c-0.09,0.09-0.2,0.19-0.33,0.32  c-0.12,0.13-0.25,0.27-0.39,0.43c-0.67,0.8-1,1.57-1,2.31c0,0.42,0.1,0.79,0.3,1.09C13.71,12.67,14,12.92,14.39,13.09z   M14.55,10.64c0.1-0.21,0.21-0.42,0.35-0.61s0.29-0.38,0.44-0.54c0.16-0.16,0.29-0.3,0.41-0.4c0.01,0,0.01,0.01,0.02,0.01  c0,0,0.01,0.01,0.01,0.01c0.39,0.43,0.68,0.83,0.89,1.21c0.2,0.37,0.31,0.69,0.31,0.95c0,0.18-0.03,0.33-0.1,0.45  c-0.07,0.12-0.18,0.21-0.33,0.3c-0.08,0.04-0.16,0.07-0.24,0.09s-0.17,0.04-0.24,0.05s-0.15,0.02-0.22,0.02s-0.12,0-0.16,0  c-0.03,0-0.07,0-0.13-0.01c-0.06,0-0.12-0.01-0.19-0.02s-0.14-0.03-0.23-0.05S14.98,12.04,14.9,12c-0.11-0.05-0.2-0.1-0.26-0.17  c-0.07-0.06-0.12-0.12-0.15-0.19c-0.03-0.06-0.06-0.13-0.07-0.19c-0.01-0.06-0.02-0.13-0.02-0.19  C14.41,11.06,14.46,10.85,14.55,10.64z"></path>	<path class="st3" d="M21.27,6.07c0.02,0.35,0.03,0.72,0.04,1.1c0.01,0.38,0.01,0.74,0.01,1.09c0,0.36,0.01,0.7,0.01,1.02  c0,0.32,0,0.61,0,0.85s0,0.44-0.01,0.59c0,0.15-0.01,0.22-0.01,0.22v0.12c0,0.1,0,0.21,0.01,0.35c0,0.14,0.02,0.28,0.06,0.43  s0.09,0.3,0.16,0.46c0.07,0.15,0.17,0.3,0.31,0.43c0.22,0.22,0.49,0.38,0.81,0.49c0.29,0.1,0.65,0.15,1.05,0.15  c0.01,0,0.02,0.01,0.03,0.01h5.61h0.04h1.96c0.17-0.01,0.33-0.02,0.5-0.05c0.17-0.02,0.33-0.06,0.49-0.11  c0.16-0.05,0.32-0.11,0.46-0.2c0.15-0.08,0.29-0.18,0.43-0.3c0.21-0.2,0.38-0.42,0.53-0.69c0.18,0.24,0.4,0.46,0.64,0.66  c0.24,0.2,0.51,0.36,0.8,0.47c0.21,0.07,0.43,0.12,0.65,0.16c0.19,0.03,0.42,0.04,0.66,0.05c0.01,0,0.03,0.01,0.04,0.01h0.07h0.05  h5.42h0.06h0.04h5.49h0.02h0.04h0.01c0.61,0,1.16-0.25,1.67-0.74c0.14-0.13,0.28-0.28,0.41-0.46c0.03,0.08,0.06,0.16,0.1,0.24  c0.03,0.08,0.07,0.15,0.11,0.22c0.26,0.4,0.63,0.64,1.11,0.73c0.06,0.01,0.11,0.02,0.17,0.02c0.05,0.01,0.11,0.01,0.17,0.01  c0.41,0,0.79-0.13,1.16-0.39c0.27-0.2,0.52-0.47,0.75-0.81c0.04,0.09,0.09,0.18,0.13,0.26c0.05,0.08,0.1,0.16,0.16,0.23  c0.18,0.22,0.39,0.39,0.64,0.5c0.25,0.12,0.52,0.17,0.83,0.17c0.28,0,0.54-0.05,0.78-0.16s0.45-0.27,0.64-0.47  c0.15-0.17,0.29-0.38,0.4-0.63c0.11,0.18,0.22,0.33,0.34,0.46c0.23,0.27,0.49,0.47,0.77,0.6c0.29,0.14,0.6,0.21,0.93,0.21h0.07  h0.05c0,0,0,0,0,0c0,0,0,0,0,0h5.55h0.06h0.04h5.19H70h0.26h0.04h0.59c0.09,0,0.22,0,0.38,0s0.33-0.01,0.51-0.02  c0.18-0.01,0.35-0.02,0.53-0.04c0.17-0.02,0.31-0.04,0.42-0.08c0.74-0.21,1.25-0.64,1.54-1.3c0.29-0.66,0.24-1.57-0.14-2.74  c-0.06-0.2-0.13-0.39-0.2-0.57c-0.07-0.18-0.13-0.33-0.19-0.47c-0.06-0.13-0.11-0.24-0.14-0.32c-0.04-0.08-0.06-0.12-0.06-0.13  l-1.09,0.54c0.07,0.15,0.14,0.3,0.2,0.46c0.06,0.13,0.12,0.27,0.17,0.42c0.06,0.15,0.11,0.29,0.16,0.43  c0.13,0.43,0.21,0.81,0.25,1.13c0.03,0.32,0.01,0.57-0.07,0.75c-0.05,0.11-0.13,0.21-0.24,0.29s-0.23,0.15-0.37,0.2  c-0.14,0.06-0.29,0.1-0.46,0.13c-0.17,0.03-0.33,0.05-0.5,0.07c-0.17,0.02-0.34,0.03-0.51,0.03c-0.17,0-0.32,0-0.46,0H70.3h-0.04  h-0.32h-5.19h-0.04h-0.01h-0.05h-5.5h-0.05c0,0,0,0-0.01,0c0,0,0,0-0.01,0h-0.05h-0.07c-0.58,0-1.03-0.5-1.35-1.49  c-0.04-0.14-0.08-0.28-0.12-0.42s-0.06-0.28-0.09-0.4c-0.02-0.13-0.04-0.25-0.06-0.36c-0.01-0.11-0.03-0.21-0.04-0.29  c-0.01-0.21-0.02-0.32-0.02-0.34l-1.2,0.1c0,0,0,0.04,0,0.1c0,0.06,0.01,0.15,0.02,0.25c0.01,0.11,0.01,0.25,0.01,0.41  c0,0.16,0,0.33-0.01,0.51c-0.02,0.4-0.08,0.75-0.16,1.04c-0.08,0.29-0.19,0.52-0.33,0.67c-0.13,0.15-0.3,0.22-0.51,0.22  c-0.15,0-0.26-0.02-0.34-0.07c-0.08-0.04-0.14-0.1-0.18-0.15c-0.11-0.14-0.2-0.34-0.25-0.62c-0.05-0.27-0.07-0.6-0.05-0.97  c0-0.17,0.01-0.33,0.03-0.49c0.02-0.15,0.03-0.28,0.05-0.39c0.02-0.11,0.03-0.19,0.04-0.25s0.02-0.09,0.02-0.09l-1.19-0.23  c0,0.01-0.01,0.04-0.02,0.1s-0.03,0.14-0.05,0.24c-0.02,0.13-0.06,0.28-0.1,0.46c-0.04,0.18-0.1,0.37-0.17,0.57  c-0.14,0.43-0.3,0.8-0.47,1.1c-0.18,0.3-0.35,0.52-0.54,0.65c-0.14,0.1-0.29,0.15-0.45,0.15c-0.04,0-0.09-0.01-0.13-0.02  c-0.12-0.01-0.21-0.07-0.27-0.18c-0.09-0.14-0.14-0.34-0.17-0.61s-0.01-0.58,0.03-0.93c0.03-0.22,0.07-0.42,0.1-0.6  c0.04-0.18,0.07-0.32,0.09-0.41c0.01-0.04,0.02-0.08,0.03-0.1c0.01-0.02,0.01-0.04,0.02-0.04l-1.17-0.32c0,0-0.01,0.05-0.03,0.15  c-0.02,0.07-0.05,0.15-0.08,0.27c-0.04,0.11-0.08,0.24-0.13,0.38c-0.05,0.14-0.11,0.29-0.18,0.45c-0.07,0.16-0.14,0.32-0.23,0.49  c-0.09,0.17-0.19,0.34-0.3,0.51c-0.11,0.18-0.24,0.33-0.37,0.48c-0.13,0.14-0.28,0.26-0.43,0.35c-0.15,0.09-0.32,0.14-0.49,0.14  h-0.01H47.7h-0.02h-5.49h-0.04h-0.01h-0.05h-5.43H36.6h-0.05h-0.14c-0.23,0-0.44-0.04-0.63-0.1c-0.19-0.06-0.36-0.15-0.52-0.26  c-0.16-0.11-0.3-0.24-0.44-0.4c-0.13-0.16-0.26-0.33-0.38-0.53c-0.15-0.26-0.3-0.52-0.43-0.78c-0.13-0.26-0.27-0.51-0.41-0.76  c-0.14-0.25-0.28-0.51-0.43-0.76s-0.32-0.51-0.5-0.76s-0.4-0.5-0.63-0.76c-0.23-0.25-0.51-0.5-0.82-0.75l4.85-2.04L35.6,3.19  l-5.41,2.33l-0.16,1.35c0.18,0.14,0.38,0.31,0.6,0.5c0.22,0.19,0.43,0.41,0.65,0.64c0.21,0.23,0.42,0.47,0.61,0.73  c0.2,0.26,0.37,0.52,0.51,0.78c0.15,0.26,0.26,0.52,0.34,0.77s0.11,0.5,0.09,0.73c-0.01,0.15-0.06,0.29-0.15,0.43  c-0.09,0.14-0.2,0.27-0.33,0.38c-0.13,0.11-0.28,0.2-0.45,0.26c-0.17,0.07-0.33,0.1-0.49,0.1H29.4h-0.02h-0.04h-5.51  c-0.01,0-0.02-0.01-0.03-0.01h-0.06c-0.51,0-0.86-0.1-1.04-0.29c-0.09-0.09-0.15-0.2-0.17-0.34c-0.02-0.14-0.02-0.29-0.02-0.47  v-0.11c0-0.03,0-0.13,0-0.3c0-0.17,0-0.38,0-0.64c0-0.26,0-0.55,0-0.88c0-0.33,0-0.68-0.01-1.03c0-0.37,0-0.74-0.01-1.13  c-0.01-0.39-0.02-0.76-0.04-1.11c-0.02-0.35-0.04-0.68-0.07-0.98c-0.03-0.3-0.06-0.56-0.1-0.76l-1.2,0.22  c0.04,0.19,0.07,0.44,0.1,0.74C21.23,5.38,21.25,5.71,21.27,6.07z"></path>	<polygon class="st3" points="34.88,1.83 30.3,3.74 30.25,4.52 35.17,2.45  "></polygon>			<rect x="53.26" y="3.82" transform="matrix(0.7069 -0.7073 0.7073 0.7069 12.6386 39.4342)" class="st3" width="1.28" height="1.29"></rect>	<polygon class="st3" points="53.51,6.31 52.51,5.31 51.52,6.3 52.52,7.31  "></polygon>			<rect x="54.5" y="5.61" transform="matrix(0.7073 -0.7069 0.7069 0.7073 11.6931 40.8736)" class="st3" width="1.4" height="1.42"></rect>			<rect x="73.11" y="14.79" transform="matrix(0.7071 -0.7071 0.7071 0.7071 10.656 56.7319)" class="st3" width="1.4" height="1.42"></rect>	<rect x="70.6" y="14.79" transform="matrix(0.705 -0.7092 0.7092 0.705 10.0439 55.1355)" class="st3" width="1.4" height="1.42"></rect>	<path class="st3" d="M78.06,6.07c0.02,0.35,0.03,0.72,0.04,1.1c0.01,0.38,0.01,0.74,0.01,1.09c0,0.36,0.01,0.7,0.01,1.02  c0,0.32,0,0.61,0,0.85s0,0.44-0.01,0.59c0,0.15-0.01,0.22-0.01,0.22v0.12c0,0.1,0,0.21,0.01,0.35c0,0.14,0.02,0.28,0.06,0.43  s0.09,0.3,0.16,0.46c0.07,0.15,0.17,0.3,0.31,0.43c0.22,0.22,0.49,0.38,0.81,0.49c0.29,0.1,0.65,0.15,1.05,0.15  c0.01,0,0.02,0.01,0.03,0.01h5.55h0.06h0.04h5.45h0.06h0.04h5.45h0.06h0.04h5.5h0.01h0.04c0.01,0,0.02-0.01,0.03-0.01  c0.9-0.02,1.65-0.32,2.24-0.94c0.01-0.01,0.03-0.03,0.06-0.06c0.43,0.32,0.85,0.55,1.24,0.71c0.58,0.23,1.09,0.29,1.55,0.17  c0.26-0.07,0.48-0.2,0.68-0.39c0.2-0.19,0.35-0.43,0.47-0.73c0.09-0.24,0.15-0.5,0.18-0.76c0.03-0.27,0.02-0.54-0.02-0.83  c-0.07-0.59-0.26-1.08-0.59-1.47c-0.41-0.49-0.92-0.74-1.54-0.74c-0.52,0-0.97,0.22-1.33,0.67c-0.14,0.17-0.26,0.35-0.37,0.55  s-0.21,0.41-0.32,0.63c-0.13,0.25-0.25,0.5-0.39,0.74c-0.13,0.24-0.28,0.45-0.46,0.64c-0.18,0.19-0.38,0.33-0.62,0.45  c-0.24,0.11-0.53,0.17-0.87,0.17h-0.01h-5.5h-0.04h-0.01h-0.05h-5.46h-0.04h-0.01h-0.05h-5.46h-0.04h-0.01h-0.05h-5.46  c-0.01,0-0.02-0.01-0.03-0.01h-0.06c-0.51,0-0.86-0.1-1.04-0.29c-0.09-0.09-0.15-0.2-0.17-0.34c-0.02-0.14-0.02-0.29-0.02-0.47  v-0.11c0-0.03,0-0.13,0-0.3c0-0.17,0-0.38,0-0.64c0-0.26,0-0.55,0-0.88c0-0.33,0-0.68-0.01-1.03c0-0.37,0-0.74-0.01-1.13  c-0.01-0.39-0.02-0.76-0.04-1.11c-0.02-0.35-0.04-0.68-0.07-0.98c-0.03-0.3-0.06-0.56-0.1-0.76l-1.2,0.22  c0.04,0.19,0.07,0.44,0.1,0.74C78.02,5.38,78.05,5.71,78.06,6.07z M106.19,10.73c0.1-0.2,0.19-0.37,0.27-0.52  c0.08-0.15,0.15-0.27,0.23-0.37c0.07-0.1,0.14-0.17,0.21-0.22s0.15-0.07,0.23-0.07c0.12,0,0.23,0.02,0.32,0.07s0.17,0.11,0.24,0.19  c0.07,0.08,0.13,0.16,0.18,0.25s0.09,0.18,0.12,0.27c0.03,0.09,0.05,0.16,0.07,0.23s0.03,0.12,0.03,0.15  c0.02,0.18,0.03,0.35,0.01,0.51s-0.05,0.3-0.1,0.42c-0.05,0.12-0.1,0.22-0.17,0.3c-0.07,0.08-0.13,0.12-0.2,0.14  c-0.2,0.06-0.46,0.02-0.76-0.1c-0.31-0.12-0.64-0.32-1.02-0.59L106.19,10.73z"></path>			<rect x="112.69" y="6.22" transform="matrix(0.7071 -0.7071 0.7071 0.7071 28.3152 82.2106)" class="st3" width="1.41" height="1.42"></rect>	<path class="st3" d="M111.85,17.2c0.33-0.21,0.65-0.44,0.95-0.69c0.3-0.25,0.58-0.51,0.83-0.79s0.48-0.58,0.66-0.88  c0.19-0.31,0.33-0.63,0.43-0.96c0.1-0.33,0.16-0.68,0.16-1.03c0-0.07,0-0.13-0.01-0.19s-0.01-0.11-0.01-0.15  c-0.02-0.14-0.04-0.29-0.07-0.45c-0.03-0.16-0.06-0.33-0.1-0.5c-0.04-0.17-0.08-0.34-0.12-0.51s-0.09-0.34-0.13-0.5  c-0.1-0.37-0.21-0.75-0.32-1.13l-1.16,0.37c0.11,0.34,0.21,0.69,0.31,1.03c0.04,0.15,0.08,0.3,0.12,0.46  c0.04,0.16,0.08,0.31,0.12,0.47c0.04,0.16,0.07,0.31,0.1,0.46s0.05,0.29,0.06,0.41V12.6c0,0.04,0.01,0.09,0.01,0.14  s0.01,0.08,0.01,0.1c0,0.4-0.1,0.78-0.29,1.15s-0.45,0.72-0.76,1.05c-0.32,0.33-0.68,0.64-1.08,0.91c-0.4,0.28-0.82,0.52-1.25,0.74  l0.53,1.08C111.18,17.6,111.52,17.41,111.85,17.2z"></path>	<path class="st3" d="M119.78,13.39c0.11-0.8,0.14-2.29,0.1-4.45c-0.02-1.31-0.11-2.78-0.24-4.4l-1.2,0.18  c0.12,1.09,0.21,2.71,0.26,4.84c0.03,1.24-0.01,2.49-0.12,3.76L119.78,13.39z"></path>	<path class="st3" d="M117.55,4.11c0.03-0.08,0.08-0.17,0.13-0.25c0.05-0.08,0.11-0.16,0.17-0.22c0.07-0.06,0.13-0.1,0.21-0.11  c0.13-0.02,0.25-0.01,0.35,0.02c0.11,0.03,0.23,0.07,0.36,0.12l0.1,0.04c0.12,0.04,0.25,0.09,0.4,0.13  c0.14,0.04,0.3,0.06,0.46,0.07c0.16,0,0.3-0.02,0.44-0.06c0.14-0.04,0.27-0.1,0.38-0.17s0.22-0.15,0.32-0.23s0.17-0.16,0.24-0.24  c0.07-0.08,0.12-0.14,0.16-0.19c0.04-0.05,0.06-0.08,0.06-0.09l-0.7-0.45c-0.02,0.03-0.07,0.08-0.12,0.15  c-0.06,0.07-0.12,0.13-0.2,0.2c-0.08,0.07-0.16,0.12-0.26,0.17s-0.19,0.07-0.29,0.07c-0.13,0-0.24-0.02-0.35-0.06  s-0.22-0.07-0.33-0.12c-0.13-0.05-0.26-0.1-0.41-0.15c-0.14-0.04-0.31-0.07-0.49-0.07c-0.04,0-0.08,0-0.13,0s-0.09,0.01-0.13,0.02  c-0.18,0.03-0.36,0.11-0.53,0.24c-0.17,0.12-0.32,0.29-0.45,0.5c-0.03,0.06-0.06,0.12-0.09,0.19c-0.03,0.07-0.06,0.14-0.09,0.2  c-0.03,0.06-0.05,0.12-0.06,0.17c-0.02,0.05-0.03,0.07-0.03,0.08l0.81,0.25C117.49,4.26,117.52,4.2,117.55,4.11z"></path>	<path class="st4" d="M19.54,30.68c-0.53,0.31-1.23,0.48-2.09,0.51c0,0,0,0,0,0c0,0,0,0-0.01,0c-0.35-0.02-0.66-0.06-0.93-0.14  c-0.27-0.08-0.5-0.18-0.7-0.3c-0.2-0.12-0.37-0.25-0.51-0.4s-0.26-0.3-0.35-0.45s-0.16-0.3-0.21-0.44s-0.08-0.27-0.1-0.37  c-0.03-0.23-0.04-0.47-0.03-0.72s0.04-0.49,0.08-0.72c0.04-0.24,0.1-0.47,0.16-0.69c0.06-0.22,0.13-0.42,0.21-0.6  c0.07-0.18,0.14-0.34,0.21-0.48c0.07-0.14,0.13-0.24,0.18-0.31l-0.97-0.72c-0.1,0.14-0.22,0.36-0.37,0.66  c-0.15,0.3-0.29,0.65-0.41,1.07c-0.05,0.16-0.1,0.35-0.15,0.55c-0.05,0.21-0.09,0.43-0.12,0.66c-0.03,0.23-0.04,0.47-0.05,0.72  c0,0.25,0.01,0.5,0.06,0.75c0.07,0.45,0.2,0.87,0.39,1.25c0.2,0.38,0.46,0.71,0.78,0.99c0.69,0.61,1.57,0.92,2.65,0.92  c0.04,0,0.08,0,0.12,0c0.04,0,0.08,0,0.12,0c0.59-0.03,1.13-0.11,1.6-0.24c0.48-0.13,0.9-0.33,1.27-0.59  c0.34-0.22,0.63-0.49,0.86-0.8c0.23-0.31,0.41-0.65,0.53-1.04c0.14-0.44,0.22-0.88,0.24-1.31s-0.01-0.85-0.07-1.25  c-0.06-0.4-0.15-0.76-0.26-1.1c-0.11-0.34-0.23-0.64-0.34-0.89s-0.22-0.46-0.31-0.61c-0.09-0.15-0.14-0.24-0.15-0.26l-1.02,0.65  c0,0,0.04,0.06,0.11,0.18c0.07,0.12,0.15,0.29,0.24,0.5s0.19,0.46,0.28,0.74c0.1,0.28,0.17,0.59,0.23,0.91  c0.06,0.33,0.08,0.67,0.07,1.02c-0.01,0.35-0.06,0.71-0.17,1.06C20.43,29.93,20.07,30.37,19.54,30.68z"></path>			<rect x="17.03" y="23.57" transform="matrix(0.7071 -0.7071 0.7071 0.7071 -11.9701 19.652)" class="st4" width="1.41" height="1.42"></rect>			<rect x="32.49" y="29.81" transform="matrix(0.7049 -0.7093 0.7093 0.7049 -11.8526 32.5514)" class="st4" width="1.4" height="1.42"></rect>			<rect x="35" y="29.82" transform="matrix(0.7071 -0.7071 0.7071 0.7071 -11.1307 34.1844)" class="st4" width="1.4" height="1.42"></rect>			<rect x="44.73" y="20.46" transform="matrix(0.7071 -0.7071 0.7071 0.7071 -1.6591 38.3305)" class="st4" width="1.41" height="1.42"></rect>	<path class="st4" d="M56.58,26.77c0.29-0.66,0.24-1.57-0.14-2.74c-0.06-0.2-0.13-0.39-0.2-0.57c-0.07-0.18-0.13-0.33-0.19-0.47  c-0.06-0.13-0.1-0.24-0.14-0.32c-0.04-0.08-0.06-0.12-0.06-0.13l-1.09,0.54c0.07,0.15,0.14,0.3,0.2,0.46  c0.06,0.13,0.12,0.27,0.17,0.42c0.06,0.15,0.11,0.29,0.16,0.43c0.13,0.43,0.21,0.81,0.25,1.13s0.01,0.57-0.07,0.75  c-0.08,0.17-0.19,0.31-0.31,0.41c-0.13,0.1-0.28,0.17-0.44,0.22c-0.17,0.05-0.35,0.08-0.55,0.09c-0.2,0.01-0.41,0.01-0.62,0H53  h-0.04h-0.05h-5.5H47.4c-0.21,0-0.38-0.05-0.5-0.14c-0.13-0.09-0.23-0.21-0.3-0.35c-0.07-0.14-0.12-0.3-0.15-0.46  c-0.03-0.17-0.05-0.33-0.06-0.48c-0.02-0.22-0.03-0.41-0.05-0.58c-0.02-0.17-0.04-0.33-0.06-0.48c-0.02-0.15-0.05-0.29-0.08-0.42  c-0.03-0.13-0.06-0.27-0.1-0.41L44.94,24c0.04,0.15,0.08,0.3,0.11,0.44c0.03,0.14,0.06,0.27,0.07,0.39  c0.02,0.12,0.03,0.24,0.04,0.36c0.01,0.12,0.01,0.23,0.01,0.35c0,0.49-0.16,0.85-0.46,1.1C44.4,26.88,43.91,27,43.22,27h-0.08  h-0.02H43.1h-5.55H37.5c0,0,0,0,0,0c0,0,0,0,0,0c-0.21,0-0.38-0.05-0.5-0.14c-0.13-0.09-0.23-0.21-0.3-0.35s-0.12-0.3-0.15-0.46  c-0.03-0.17-0.05-0.33-0.06-0.48c-0.01-0.16-0.02-0.32-0.04-0.49c-0.02-0.17-0.04-0.33-0.06-0.49s-0.05-0.32-0.09-0.48  c-0.03-0.16-0.07-0.31-0.1-0.45l-1.14,0.32c0.09,0.31,0.15,0.59,0.18,0.84c0.03,0.24,0.05,0.48,0.06,0.71  c0.01,0.3-0.05,0.54-0.19,0.73c-0.14,0.19-0.33,0.34-0.57,0.45c-0.24,0.11-0.52,0.19-0.83,0.23c-0.31,0.04-0.64,0.06-0.98,0.06  h-0.46c-0.01,0-0.02,0.01-0.03,0.01h-5.43c-0.01,0-0.02-0.01-0.03-0.01h-0.06c-0.51,0-0.86-0.1-1.04-0.29  c-0.09-0.09-0.15-0.2-0.17-0.34c-0.02-0.14-0.02-0.29-0.02-0.47v-0.11c0-0.03,0-0.13,0-0.3c0-0.17,0-0.38,0-0.64  c0-0.26,0-0.55,0-0.88c0-0.33,0-0.68-0.01-1.03c0-0.37,0-0.74-0.01-1.13c-0.01-0.39-0.02-0.76-0.04-1.11  c-0.02-0.35-0.04-0.68-0.07-0.98c-0.03-0.3-0.06-0.56-0.1-0.76l-1.2,0.22c0.04,0.19,0.07,0.44,0.1,0.74  c0.03,0.3,0.05,0.63,0.07,0.98c0.02,0.35,0.03,0.72,0.04,1.1c0.01,0.38,0.01,0.74,0.01,1.09c0,0.36,0.01,0.7,0.01,1.02  c0,0.32,0,0.61,0,0.85s0,0.44-0.01,0.59c0,0.15-0.01,0.22-0.01,0.22v0.12c0,0.1,0,0.21,0.01,0.35c0,0.14,0.02,0.28,0.06,0.43  s0.09,0.3,0.16,0.46c0.07,0.15,0.17,0.3,0.31,0.43c0.22,0.22,0.49,0.38,0.81,0.49c0.29,0.1,0.65,0.15,1.05,0.15  c0.01,0,0.02,0.01,0.03,0.01h5.56h0.05h0.04h0.38c0.29,0,0.59-0.01,0.9-0.04c0.31-0.03,0.6-0.07,0.88-0.13  c0.28-0.06,0.54-0.14,0.77-0.24s0.42-0.22,0.57-0.36c0.17,0.22,0.39,0.41,0.66,0.56c0.26,0.15,0.6,0.22,1,0.22c0,0,0.01,0,0.01,0  h5.61h0.02h0.02h0.08c0.6,0,1.1-0.06,1.51-0.19s0.74-0.32,1-0.57c0.09,0.11,0.18,0.21,0.29,0.31c0.11,0.09,0.23,0.17,0.37,0.24  s0.29,0.12,0.46,0.16c0.14,0.03,0.29,0.04,0.45,0.04c0.02,0,0.04,0.01,0.06,0.01h5.56h0.05h0.01H53h0.81  c0.18,0,0.38-0.01,0.59-0.02s0.43-0.05,0.65-0.12C55.78,27.86,56.29,27.42,56.58,26.77z"></path>			<rect x="54.04" y="29.79" transform="matrix(0.7071 -0.7071 0.7071 0.7071 -5.5282 47.6459)" class="st4" width="1.41" height="1.42"></rect>			<rect x="84.31" y="20.42" transform="matrix(0.7071 -0.7071 0.7071 0.7071 9.9597 66.3009)" class="st4" width="1.4" height="1.42"></rect>	<polygon class="st4" points="81.33,21.12 82.33,22.12 83.32,21.12 82.32,20.12  "></polygon>			<rect x="83.07" y="18.63" transform="matrix(0.7069 -0.7073 0.7073 0.7069 10.8994 64.8593)" class="st4" width="1.28" height="1.29"></rect>			<rect x="94.86" y="29.6" transform="matrix(0.7071 -0.7071 0.7071 0.7071 6.5611 76.4496)" class="st4" width="1.4" height="1.42"></rect>			<rect x="97.37" y="29.61" transform="matrix(0.7047 -0.7095 0.7095 0.7047 7.4534 78.5356)" class="st4" width="1.4" height="1.42"></rect>	<path class="st4" d="M98.54,26.77c0.29-0.66,0.24-1.57-0.14-2.74c-0.06-0.2-0.13-0.39-0.2-0.57c-0.07-0.18-0.13-0.33-0.19-0.47  c-0.06-0.13-0.11-0.24-0.14-0.32c-0.04-0.08-0.06-0.12-0.06-0.13l-1.09,0.54c0.07,0.15,0.14,0.3,0.2,0.46  c0.06,0.13,0.12,0.27,0.17,0.42c0.06,0.15,0.11,0.29,0.16,0.43c0.13,0.43,0.21,0.81,0.25,1.13c0.03,0.32,0.01,0.57-0.07,0.75  c-0.05,0.11-0.13,0.21-0.24,0.29s-0.23,0.15-0.37,0.2c-0.14,0.06-0.29,0.1-0.46,0.13c-0.17,0.03-0.33,0.05-0.5,0.07  C95.69,26.99,95.52,27,95.36,27c-0.17,0-0.32,0-0.46,0h-0.32h-0.04h-0.32h-5.24h-0.05c0,0,0,0-0.01,0c0,0,0,0-0.01,0h-0.05h-0.07  c-0.58,0-1.03-0.5-1.35-1.49c-0.04-0.14-0.08-0.28-0.12-0.42s-0.06-0.28-0.09-0.4c-0.02-0.13-0.04-0.25-0.06-0.36  c-0.01-0.11-0.03-0.21-0.04-0.29c-0.01-0.21-0.02-0.32-0.02-0.34l-1.2,0.1c0,0,0,0.04,0,0.1c0,0.06,0.01,0.15,0.02,0.25  c0.01,0.11,0.01,0.25,0.01,0.41c0,0.16,0,0.33-0.01,0.51c-0.02,0.4-0.08,0.75-0.16,1.04c-0.08,0.29-0.19,0.52-0.33,0.67  c-0.13,0.15-0.3,0.22-0.51,0.22c-0.15,0-0.26-0.02-0.34-0.07c-0.08-0.04-0.14-0.1-0.18-0.15c-0.11-0.14-0.2-0.34-0.25-0.62  c-0.05-0.27-0.07-0.6-0.05-0.97c0-0.17,0.01-0.33,0.03-0.49c0.02-0.15,0.03-0.28,0.05-0.39c0.02-0.11,0.03-0.19,0.04-0.25  s0.02-0.09,0.02-0.09l-1.19-0.23c0,0.01-0.01,0.04-0.02,0.1s-0.03,0.14-0.05,0.24c-0.02,0.13-0.06,0.28-0.1,0.46  c-0.04,0.18-0.1,0.37-0.17,0.57c-0.14,0.43-0.3,0.8-0.47,1.1c-0.18,0.3-0.35,0.52-0.54,0.65c-0.14,0.1-0.29,0.15-0.45,0.15  c-0.04,0-0.09-0.01-0.13-0.02c-0.12-0.01-0.21-0.07-0.27-0.18c-0.09-0.14-0.14-0.34-0.17-0.61s-0.01-0.58,0.03-0.93  c0.03-0.22,0.07-0.42,0.1-0.6c0.04-0.18,0.07-0.32,0.09-0.41c0.01-0.04,0.02-0.08,0.03-0.1c0.01-0.02,0.01-0.04,0.02-0.04  l-1.17-0.32c0,0-0.01,0.05-0.03,0.15c-0.02,0.07-0.05,0.15-0.08,0.27c-0.04,0.11-0.08,0.24-0.13,0.38  c-0.05,0.14-0.11,0.29-0.18,0.45c-0.07,0.16-0.14,0.32-0.23,0.49c-0.09,0.17-0.19,0.34-0.3,0.51c-0.11,0.18-0.24,0.33-0.37,0.48  c-0.13,0.14-0.28,0.26-0.43,0.35C77.88,26.95,77.72,27,77.55,27h-0.01h-0.04h-0.02h-5.54c-0.14,0-0.27-0.01-0.38-0.03  c-0.11-0.02-0.21-0.05-0.29-0.09c-0.09-0.04-0.16-0.1-0.22-0.17c-0.06-0.07-0.12-0.17-0.17-0.27c-0.01-0.02-0.03-0.08-0.06-0.17  c-0.03-0.09-0.06-0.23-0.1-0.42c-0.04-0.2-0.09-0.46-0.14-0.8c-0.05-0.33-0.11-0.76-0.17-1.29c0-0.03-0.01-0.1-0.02-0.21  s-0.03-0.25-0.04-0.4c-0.02-0.15-0.03-0.32-0.05-0.5c-0.02-0.18-0.04-0.34-0.05-0.5c-0.02-0.16-0.03-0.29-0.04-0.41  s-0.02-0.19-0.02-0.23v0.01l-1.2,0.25c0,0,0.01,0.08,0.02,0.22c0.01,0.15,0.04,0.37,0.07,0.68c-0.11,0.04-0.25,0.09-0.4,0.16  c-0.16,0.07-0.32,0.14-0.49,0.23c-0.17,0.09-0.35,0.19-0.54,0.31c-0.19,0.12-0.37,0.26-0.54,0.41s-0.34,0.33-0.49,0.52  c-0.15,0.19-0.28,0.4-0.39,0.63c-0.04,0.09-0.07,0.19-0.09,0.32s-0.03,0.27-0.03,0.42c0.01,0.15,0.03,0.31,0.08,0.46  c0.05,0.16,0.13,0.3,0.24,0.44c0.41,0.51,1.14,0.76,2.2,0.76c0.2,0,0.41-0.01,0.63-0.03c0.22-0.02,0.46-0.05,0.71-0.09  c0.21,0.34,0.48,0.59,0.81,0.75c0.21,0.1,0.43,0.16,0.64,0.19c0.18,0.02,0.33,0.03,0.47,0.03c0.01,0,0.02,0.01,0.03,0.01h5.59h0.02  h0.04h0.01c0.61,0,1.16-0.25,1.67-0.74c0.14-0.13,0.28-0.28,0.41-0.46c0.03,0.08,0.06,0.16,0.1,0.24c0.03,0.08,0.07,0.15,0.11,0.22  c0.26,0.4,0.63,0.64,1.11,0.73c0.06,0.01,0.11,0.02,0.17,0.02c0.05,0.01,0.11,0.01,0.17,0.01c0.41,0,0.79-0.13,1.16-0.39  c0.27-0.2,0.52-0.47,0.75-0.81c0.04,0.09,0.09,0.18,0.13,0.26c0.05,0.08,0.1,0.16,0.16,0.23c0.18,0.22,0.39,0.39,0.64,0.5  c0.25,0.12,0.52,0.17,0.83,0.17c0.28,0,0.54-0.05,0.78-0.16s0.45-0.27,0.64-0.47c0.15-0.17,0.29-0.38,0.4-0.63  c0.11,0.18,0.22,0.33,0.34,0.46c0.23,0.27,0.49,0.47,0.77,0.6c0.29,0.14,0.6,0.21,0.93,0.21h0.07h0.05c0,0,0,0,0,0c0,0,0,0,0,0  h5.29h0.06h0.26h0.04h0.59c0.09,0,0.22,0,0.38,0s0.33-0.01,0.51-0.02c0.18-0.01,0.35-0.02,0.53-0.04c0.17-0.02,0.31-0.04,0.42-0.08  C97.73,27.86,98.25,27.42,98.54,26.77z M69.15,26.13c-0.15,0.02-0.31,0.03-0.48,0.03c-0.17,0-0.34-0.01-0.5-0.02  c-0.17-0.02-0.32-0.05-0.45-0.09s-0.24-0.11-0.32-0.2s-0.13-0.19-0.13-0.33c0-0.13,0.03-0.26,0.1-0.38  c0.07-0.12,0.16-0.23,0.27-0.34c0.11-0.1,0.24-0.2,0.38-0.29c0.14-0.09,0.28-0.18,0.43-0.25c0.15-0.08,0.28-0.14,0.42-0.2  c0.13-0.06,0.25-0.11,0.35-0.15c0.06,0.52,0.12,0.95,0.17,1.3c0.05,0.34,0.1,0.63,0.15,0.87C69.43,26.09,69.3,26.11,69.15,26.13z"></path>			<rect x="114.69" y="19.85" transform="matrix(0.7071 -0.7071 0.7071 0.7071 19.2594 87.6209)" class="st4" width="1.41" height="1.42"></rect>	<path class="st4" d="M116.28,22.55l-1.09,0.54c0.07,0.15,0.14,0.3,0.2,0.46c0.06,0.13,0.12,0.27,0.17,0.42  c0.06,0.15,0.11,0.29,0.16,0.43c0.13,0.43,0.21,0.81,0.25,1.13c0.03,0.32,0.01,0.57-0.07,0.75c-0.08,0.17-0.19,0.31-0.32,0.41  c-0.13,0.1-0.28,0.17-0.44,0.22s-0.35,0.08-0.55,0.09c-0.2,0.01-0.41,0.01-0.62,0h-0.54h-0.04h-0.05h-5.5  c-0.28,0-0.5-0.03-0.66-0.1c-0.16-0.06-0.29-0.15-0.39-0.26c-0.1-0.11-0.18-0.25-0.24-0.41c-0.06-0.16-0.14-0.34-0.22-0.54  c-0.31-0.75-0.59-1.4-0.82-1.96c-0.23-0.56-0.43-1.03-0.58-1.42c-0.18-0.44-0.34-0.83-0.47-1.14l-1.11,0.46l1.93,4.65  c-0.07,0.07-0.17,0.15-0.3,0.25c-0.13,0.1-0.3,0.18-0.51,0.27c-0.22,0.09-0.45,0.14-0.68,0.16c-0.23,0.02-0.47,0.01-0.72-0.05  c-0.24-0.05-0.49-0.15-0.74-0.28c-0.25-0.13-0.5-0.32-0.74-0.54l-0.69,0.97c0.34,0.35,0.72,0.63,1.13,0.83  c0.41,0.2,0.86,0.3,1.34,0.3c0.31,0,0.59-0.02,0.83-0.06c0.24-0.04,0.48-0.11,0.71-0.2c0.2-0.08,0.38-0.17,0.54-0.27  c0.16-0.1,0.3-0.19,0.42-0.28c0.09,0.11,0.19,0.21,0.31,0.31s0.26,0.19,0.41,0.26c0.16,0.07,0.34,0.13,0.54,0.17  c0.18,0.04,0.38,0.05,0.6,0.06c0.02,0,0.03,0.01,0.05,0.01h5.56h0.05h0.01h0.03h0.81c0.18,0,0.38-0.01,0.59-0.02  s0.42-0.05,0.65-0.12c0.74-0.21,1.25-0.64,1.54-1.3c0.29-0.66,0.24-1.57-0.14-2.74c-0.06-0.2-0.13-0.39-0.2-0.57  c-0.07-0.18-0.13-0.33-0.19-0.47c-0.06-0.13-0.11-0.24-0.14-0.32C116.3,22.59,116.28,22.55,116.28,22.55z"></path>	<path class="st4" d="M120.45,28.25c0.11-1.35,0.14-3.1,0.1-5.26c-0.03-1.31-0.13-2.79-0.31-4.45l-1.2,0.18  c0.14,1.28,0.25,2.92,0.33,4.89c0.05,1.23,0.01,2.75-0.12,4.57L120.45,28.25z"></path>			<rect x="19.56" y="36.25" transform="matrix(0.7071 -0.7071 0.7071 0.7071 -20.2158 25.188)" class="st3" width="1.47" height="1.49"></rect>			<rect x="17.25" y="36.24" transform="matrix(0.7074 -0.7068 0.7068 0.7074 -20.8799 23.532)" class="st3" width="1.47" height="1.49"></rect>			<rect x="46.3" y="35.29" transform="matrix(0.707 -0.7073 0.7073 0.707 -11.7375 43.9117)" class="st3" width="1.65" height="1.66"></rect>	<path class="st3" d="M65.12,38.32L65.12,38.32c-0.27-0.29-0.58-0.5-0.93-0.65c-0.35-0.15-0.73-0.22-1.15-0.22  c-0.22,0-0.45,0.02-0.69,0.07l0.01-0.01c-0.22,0.04-0.44,0.1-0.67,0.18c-0.23,0.08-0.45,0.18-0.68,0.3  c-0.22,0.12-0.44,0.25-0.65,0.4c-0.21,0.15-0.41,0.31-0.59,0.49c-0.2,0.19-0.38,0.39-0.55,0.59c-0.17,0.2-0.32,0.4-0.46,0.6  c-0.14,0.19-0.26,0.38-0.36,0.56c-0.1,0.18-0.19,0.33-0.26,0.47c-0.05-0.11-0.1-0.22-0.15-0.34c-0.04-0.12-0.07-0.25-0.07-0.38  c0-0.2,0.02-0.4,0.05-0.59c0.03-0.19,0.08-0.41,0.14-0.67l-1.32-0.42c-0.03,0.1-0.06,0.19-0.08,0.27  c-0.02,0.08-0.04,0.16-0.06,0.24c-0.02,0.08-0.04,0.15-0.05,0.23c-0.02,0.08-0.03,0.16-0.05,0.25c-0.06,0.29-0.14,0.56-0.25,0.81  c-0.11,0.25-0.23,0.46-0.35,0.64c-0.04,0.05-0.09,0.11-0.16,0.17c-0.06,0.06-0.15,0.11-0.26,0.17s-0.24,0.09-0.4,0.12  c-0.16,0.03-0.35,0.05-0.57,0.05h-5.55c0,0,0,0,0,0s0,0,0,0c-0.17,0-0.31-0.04-0.42-0.12c-0.11-0.08-0.19-0.19-0.26-0.31  c-0.06-0.13-0.11-0.27-0.13-0.42c-0.02-0.15-0.03-0.3-0.03-0.43c0-0.35-0.03-0.68-0.09-0.99c-0.06-0.32-0.13-0.62-0.21-0.91  l-1.5,0.42c0.05,0.18,0.1,0.34,0.14,0.47c0.04,0.13,0.08,0.26,0.11,0.37c0.03,0.11,0.05,0.22,0.07,0.32  c0.02,0.1,0.02,0.21,0.02,0.32c0,0.43-0.16,0.75-0.48,0.96c-0.32,0.21-0.79,0.32-1.42,0.32h-0.1h-0.01h-5.52  c-0.33,0-0.65-0.02-0.96-0.05c-0.31-0.03-0.59-0.09-0.85-0.16c0.2-0.17,0.4-0.37,0.58-0.6c0.18-0.22,0.34-0.45,0.48-0.69  c0.14-0.24,0.24-0.47,0.31-0.7s0.1-0.44,0.09-0.63c0-0.09-0.02-0.19-0.05-0.3c-0.03-0.12-0.09-0.24-0.17-0.36  c-0.08-0.12-0.2-0.25-0.34-0.37c-0.15-0.12-0.33-0.24-0.57-0.34c-0.17-0.08-0.35-0.14-0.55-0.19s-0.4-0.09-0.6-0.11  c-0.21-0.02-0.41-0.04-0.62-0.04c-0.21,0-0.42,0.01-0.61,0.03c-0.18,0.02-0.38,0.05-0.59,0.09c-0.22,0.04-0.44,0.11-0.68,0.2  c-0.23,0.09-0.47,0.2-0.71,0.34s-0.48,0.31-0.71,0.51l-0.09,1.27c0.18,0.17,0.35,0.33,0.51,0.49c0.16,0.15,0.31,0.3,0.45,0.45  c0.14,0.14,0.29,0.29,0.43,0.43c0.14,0.14,0.29,0.3,0.45,0.46c-0.15,0.04-0.32,0.08-0.5,0.12c-0.18,0.03-0.37,0.06-0.56,0.08  s-0.38,0.04-0.58,0.05c-0.19,0.01-0.38,0.02-0.55,0.02h-5.55c-0.02,0-0.03,0.01-0.05,0.01c-0.02,0-0.03-0.01-0.05-0.01  c-0.31,0-0.56-0.03-0.78-0.1s-0.39-0.17-0.52-0.3c-0.14-0.13-0.24-0.28-0.3-0.47c-0.07-0.18-0.1-0.39-0.12-0.61  c0-0.23,0.02-0.46,0.08-0.67c0.06-0.22,0.12-0.44,0.17-0.66l-1.41-0.38c-0.06,0.2-0.11,0.4-0.16,0.61  c-0.05,0.21-0.11,0.42-0.18,0.62c-0.07,0.2-0.17,0.39-0.28,0.58c-0.11,0.18-0.25,0.34-0.43,0.48c-0.2,0.16-0.44,0.3-0.71,0.41  c-0.27,0.11-0.58,0.2-0.91,0.28s-0.7,0.12-1.09,0.16c-0.39,0.03-0.81,0.05-1.24,0.05c-0.48,0-0.93-0.02-1.35-0.06  s-0.79-0.1-1.12-0.19c-0.33-0.09-0.61-0.2-0.85-0.33c-0.23-0.13-0.41-0.3-0.52-0.49c-0.08-0.13-0.15-0.27-0.2-0.42  c-0.05-0.15-0.08-0.29-0.08-0.44c0-0.21,0.02-0.39,0.05-0.54s0.07-0.29,0.12-0.4c0.05-0.11,0.1-0.21,0.15-0.3  c0.05-0.09,0.1-0.17,0.14-0.24l-1.18-0.74c-0.01,0.02-0.03,0.06-0.07,0.12c-0.03,0.06-0.07,0.14-0.12,0.24  c-0.04,0.1-0.09,0.23-0.15,0.38c-0.05,0.15-0.1,0.32-0.15,0.52v-0.01c-0.08,0.31-0.12,0.62-0.12,0.95c0,0.27,0.03,0.54,0.1,0.83  s0.18,0.55,0.33,0.81c0.4,0.64,1.01,1.11,1.85,1.42c0.84,0.31,1.89,0.47,3.16,0.48c2.23,0,3.91-0.52,5.03-1.55  c0.13,0.27,0.29,0.51,0.47,0.7c0.18,0.19,0.39,0.35,0.62,0.48c0.23,0.12,0.49,0.22,0.77,0.27c0.28,0.06,0.59,0.09,0.93,0.09h0.05  c0.02,0,0.03-0.01,0.05-0.01c0.02,0,0.03,0.01,0.05,0.01h5.53c0.01,0,0.02,0.01,0.03,0.01c0.29,0,0.61-0.01,0.94-0.04  s0.67-0.08,1-0.14c0.33-0.06,0.65-0.15,0.95-0.26s0.56-0.24,0.79-0.39c0.21,0.17,0.44,0.31,0.69,0.42c0.25,0.11,0.52,0.2,0.8,0.26  c0.28,0.06,0.58,0.1,0.89,0.13c0.31,0.02,0.63,0.03,0.95,0.03c0.01,0,0.02-0.01,0.03-0.01h5.49h0.01h0.1  c1.12,0,1.96-0.23,2.51-0.68c0.19,0.2,0.42,0.37,0.69,0.49c0.27,0.12,0.6,0.18,0.99,0.19c0,0,0,0,0.01,0h5.55h0.01h0.05  c0.55,0,1.02-0.08,1.41-0.23c0.4-0.15,0.73-0.39,1.01-0.7c0.25,0.22,0.5,0.41,0.74,0.54s0.5,0.25,0.77,0.32s0.57,0.13,0.89,0.15  c0.32,0.03,0.69,0.04,1.09,0.04c0.33,0,0.68-0.02,1.06-0.05c0.38-0.03,0.75-0.09,1.13-0.18c0.38-0.08,0.74-0.2,1.1-0.34  c0.35-0.15,0.67-0.33,0.96-0.56c0.31-0.26,0.55-0.56,0.73-0.91c0.18-0.35,0.29-0.72,0.32-1.12c0.02-0.33-0.03-0.65-0.15-0.97  C65.57,38.87,65.38,38.58,65.12,38.32z M37.23,39.38c-0.12,0.16-0.26,0.33-0.42,0.5s-0.33,0.33-0.5,0.49s-0.33,0.28-0.47,0.37  c-0.09-0.09-0.2-0.2-0.33-0.33c-0.13-0.13-0.27-0.27-0.42-0.43c-0.15-0.15-0.31-0.32-0.46-0.49c-0.16-0.17-0.31-0.34-0.45-0.52  c0.11-0.05,0.24-0.1,0.39-0.15c0.14-0.04,0.29-0.08,0.45-0.12c0.15-0.03,0.31-0.06,0.46-0.07c0.15-0.02,0.29-0.02,0.42-0.02  c0.13,0,0.27,0.01,0.42,0.02c0.15,0.02,0.29,0.04,0.43,0.07c0.14,0.03,0.27,0.07,0.4,0.12c0.13,0.04,0.24,0.09,0.34,0.15  C37.43,39.08,37.35,39.21,37.23,39.38z M64.1,40.8c-0.21,0.2-0.45,0.36-0.75,0.48s-0.61,0.21-0.97,0.27  c-0.35,0.06-0.71,0.09-1.07,0.11c-0.36,0.02-0.71,0.02-1.05,0.01s-0.65-0.02-0.92-0.04c0.06-0.11,0.14-0.24,0.24-0.38  c0.1-0.14,0.21-0.29,0.34-0.44c0.13-0.15,0.27-0.3,0.42-0.45c0.15-0.15,0.31-0.29,0.48-0.43c0.12-0.1,0.26-0.19,0.4-0.29  c0.15-0.09,0.3-0.18,0.46-0.26c0.16-0.08,0.32-0.15,0.48-0.21c0.16-0.06,0.32-0.1,0.47-0.13c0.2-0.03,0.41-0.04,0.62-0.02  s0.41,0.07,0.59,0.15c0.18,0.08,0.33,0.19,0.46,0.33c0.12,0.14,0.2,0.32,0.22,0.53C64.45,40.35,64.31,40.6,64.1,40.8z"></path>	<path class="st3" d="M78.73,47.18c0.28,0,0.59-0.02,0.93-0.06c0.34-0.04,0.69-0.11,1.04-0.21s0.69-0.21,1.03-0.36  c0.33-0.15,0.63-0.33,0.9-0.54c0.26-0.21,0.48-0.46,0.65-0.75c0.17-0.28,0.26-0.6,0.28-0.96c0-0.15-0.03-0.32-0.09-0.51  c-0.06-0.19-0.16-0.39-0.33-0.59h0.84h0.19h5.37c0,0,0,0,0.01,0c0.24,0,0.46-0.02,0.66-0.06c0.21-0.04,0.41-0.11,0.6-0.19  s0.37-0.19,0.54-0.32c0.17-0.12,0.34-0.26,0.5-0.42c0.09,0.07,0.19,0.13,0.3,0.2c0.11,0.07,0.22,0.13,0.33,0.19  c0.11,0.06,0.22,0.12,0.32,0.17c0.11,0.05,0.2,0.09,0.29,0.13c0.19,0.07,0.38,0.13,0.58,0.17c0.19,0.04,0.37,0.06,0.54,0.06  c0.09,0,0.19,0,0.28-0.01c0.09-0.01,0.18-0.03,0.27-0.05c0.27-0.08,0.52-0.23,0.75-0.44c0.23-0.21,0.4-0.47,0.53-0.78  c0.07-0.18,0.12-0.37,0.16-0.57c0.03-0.2,0.05-0.4,0.05-0.61c0-0.18-0.01-0.35-0.04-0.51v0.01c-0.03-0.31-0.1-0.59-0.21-0.86  c-0.11-0.27-0.25-0.5-0.42-0.71c-0.22-0.26-0.47-0.46-0.75-0.6s-0.59-0.21-0.92-0.21c-0.28,0-0.55,0.07-0.8,0.2  c-0.25,0.13-0.48,0.31-0.68,0.54c-0.13,0.17-0.26,0.36-0.38,0.58c-0.12,0.21-0.23,0.43-0.33,0.64c-0.11,0.22-0.24,0.45-0.36,0.67  c-0.13,0.22-0.28,0.43-0.45,0.61c-0.17,0.18-0.36,0.33-0.58,0.44s-0.48,0.17-0.78,0.17h-5.36h-0.18h-4.56l-0.21,1.53  c0.27,0.05,0.55,0.1,0.83,0.14s0.56,0.11,0.84,0.21c0.19,0.07,0.37,0.15,0.54,0.23c0.17,0.08,0.31,0.16,0.44,0.23  s0.22,0.14,0.29,0.2c0.07,0.06,0.11,0.1,0.11,0.13c0,0.18-0.07,0.33-0.21,0.46S81.71,45,81.49,45.1s-0.47,0.18-0.74,0.24  c-0.27,0.07-0.54,0.12-0.8,0.16c-0.26,0.04-0.5,0.07-0.72,0.09c-0.22,0.02-0.38,0.02-0.5,0.02c-0.19,0-0.42,0-0.68-0.02  c-0.26-0.01-0.52-0.04-0.79-0.09c-0.27-0.05-0.52-0.14-0.76-0.25c-0.24-0.12-0.44-0.28-0.6-0.5c-0.12-0.18-0.22-0.39-0.29-0.62  c-0.08-0.23-0.11-0.5-0.11-0.79c0-0.25,0.01-0.5,0.04-0.76c0.02-0.26,0.07-0.55,0.13-0.85c0.06-0.3,0.15-0.63,0.26-0.98  c0.11-0.35,0.25-0.73,0.42-1.15L75.08,39c-0.18,0.42-0.32,0.81-0.44,1.18s-0.22,0.71-0.3,1.03s-0.14,0.63-0.18,0.93  c-0.04,0.29-0.07,0.58-0.08,0.86V43c0,0.05-0.01,0.11-0.01,0.16c0,0.05,0,0.1,0,0.15c0,0.94,0.21,1.71,0.62,2.31l-0.01-0.01  c0.2,0.34,0.45,0.61,0.76,0.82c0.31,0.21,0.64,0.37,1.01,0.48c0.36,0.11,0.74,0.19,1.13,0.22C77.98,47.16,78.36,47.18,78.73,47.18z   M93,40.38c0.18-0.36,0.32-0.62,0.44-0.8s0.23-0.27,0.34-0.27c0.13,0,0.24,0.03,0.35,0.09c0.11,0.06,0.21,0.13,0.29,0.22  c0.09,0.09,0.17,0.19,0.24,0.3c0.07,0.11,0.13,0.22,0.17,0.32c0.05,0.11,0.08,0.2,0.11,0.29s0.04,0.16,0.05,0.21  c0.01,0.12,0,0.23-0.02,0.33c-0.02,0.1-0.05,0.18-0.08,0.26c-0.03,0.07-0.07,0.13-0.11,0.17c-0.04,0.04-0.08,0.07-0.13,0.08  c-0.05,0.01-0.1,0.02-0.15,0.02c-0.09,0-0.2-0.02-0.34-0.05c-0.14-0.04-0.29-0.08-0.46-0.14c-0.17-0.06-0.33-0.13-0.5-0.22  c-0.17-0.08-0.32-0.17-0.46-0.27L93,40.38z"></path>	<path class="st3" d="M97.9,36.32c0.01,0.3,0.02,0.61,0.02,0.91s0.01,0.6,0.01,0.89c0,0.29,0,0.57,0,0.82c0,0.43,0,0.79-0.01,1.09  c-0.01,0.3-0.01,0.52-0.02,0.65c0,0.11,0,0.23,0.01,0.38c0.01,0.14,0.03,0.3,0.06,0.46c0.04,0.16,0.1,0.33,0.17,0.5  c0.08,0.17,0.19,0.33,0.34,0.47c0.24,0.24,0.54,0.41,0.87,0.53c0.33,0.11,0.73,0.17,1.19,0.17c0,0,0.01,0,0.01,0h5.55h0.01h5.54  h0.01h0.04h1.16c0.8-0.02,1.57-0.11,2.31-0.29c0.74-0.18,1.45-0.39,2.12-0.66c0.68-0.26,1.33-0.54,1.95-0.85  c0.62-0.31,1.21-0.6,1.79-0.87l0.13-1.58c-0.33,0-0.66-0.05-0.98-0.14c-0.32-0.09-0.63-0.2-0.94-0.32  c-0.31-0.13-0.62-0.27-0.93-0.42c-0.31-0.15-0.61-0.29-0.92-0.41c-0.3-0.13-0.61-0.23-0.92-0.32c-0.31-0.08-0.62-0.12-0.94-0.12  c-0.31,0-0.6,0.05-0.87,0.16c-0.27,0.11-0.53,0.25-0.76,0.43c-0.23,0.18-0.45,0.39-0.64,0.62c-0.19,0.23-0.36,0.47-0.5,0.71  l1.27,0.83c0.02-0.03,0.04-0.08,0.09-0.15c0.04-0.07,0.09-0.15,0.16-0.24s0.14-0.18,0.22-0.27c0.08-0.09,0.18-0.18,0.28-0.26  s0.22-0.14,0.35-0.19c0.12-0.05,0.26-0.08,0.4-0.08c0.25,0,0.49,0.04,0.74,0.13s0.51,0.2,0.78,0.32c0.27,0.12,0.55,0.25,0.86,0.38  c0.3,0.13,0.63,0.23,0.98,0.31c-0.44,0.22-0.91,0.43-1.4,0.63c-0.49,0.2-1,0.38-1.52,0.54s-1.04,0.28-1.56,0.38  c-0.52,0.1-1.04,0.14-1.54,0.14h-1.2h-0.01h-5.54h-0.01h-5.51c-0.01,0-0.02-0.01-0.03-0.01h-0.06c-0.46,0-0.76-0.08-0.91-0.24  c-0.07-0.07-0.11-0.17-0.12-0.3s-0.02-0.28-0.01-0.44c0-0.13,0-0.25,0-0.37c0-0.12,0-0.25,0.01-0.37c0-0.13,0-0.26,0.01-0.39  c0-0.14,0-0.28,0-0.44c0-0.09,0-0.19,0-0.3s0-0.22,0-0.34c0-0.12,0-0.23-0.01-0.35s0-0.23,0-0.34c0-0.36-0.01-0.73-0.02-1.12  s-0.03-0.78-0.05-1.16c-0.02-0.38-0.05-0.73-0.08-1.07c-0.03-0.33-0.07-0.62-0.12-0.86l-1.54,0.46c0.04,0.19,0.07,0.41,0.09,0.66  c0.03,0.25,0.05,0.51,0.07,0.79C97.87,35.73,97.89,36.02,97.9,36.32z"></path>			<rect x="15.35" y="54.26" transform="matrix(0.7073 -0.7069 0.7069 0.7073 -34.12 27.3517)" class="st4" width="1.24" height="1.25"></rect>	<path class="st4" d="M19.09,56.54c-0.06-0.21-0.12-0.4-0.18-0.59c-0.06-0.19-0.12-0.35-0.18-0.5c-0.06-0.14-0.1-0.26-0.14-0.35  c-0.04-0.09-0.06-0.14-0.07-0.15l-1.08,0.6c0,0,0.02,0.04,0.06,0.12c0.04,0.08,0.09,0.19,0.15,0.32c0.06,0.13,0.12,0.28,0.19,0.45  c0.07,0.17,0.13,0.34,0.19,0.52c0.06,0.18,0.11,0.35,0.15,0.52c0.04,0.17,0.06,0.33,0.07,0.47c0.01,0.28-0.05,0.54-0.17,0.78  c-0.13,0.24-0.31,0.45-0.53,0.63c-0.23,0.18-0.49,0.32-0.8,0.42c-0.31,0.1-0.63,0.15-0.98,0.14c-0.29-0.01-0.56-0.05-0.82-0.14  c-0.26-0.09-0.49-0.22-0.68-0.38s-0.35-0.35-0.47-0.58c-0.11-0.22-0.17-0.47-0.17-0.74c0-0.23,0.03-0.46,0.08-0.68  c0.05-0.23,0.12-0.44,0.19-0.63c0.07-0.2,0.15-0.37,0.23-0.52c0.08-0.15,0.15-0.26,0.2-0.34l-0.9-0.66  c-0.28,0.42-0.49,0.88-0.64,1.36c-0.14,0.48-0.22,0.96-0.22,1.45c0,0.23,0.02,0.45,0.06,0.66s0.1,0.42,0.18,0.62  c0.08,0.2,0.18,0.39,0.3,0.56c0.12,0.18,0.26,0.34,0.43,0.49c0.27,0.24,0.58,0.41,0.94,0.52c0.36,0.11,0.77,0.18,1.23,0.2  c0.43,0.02,0.82-0.01,1.17-0.09c0.35-0.08,0.66-0.2,0.93-0.35c0.27-0.15,0.5-0.34,0.7-0.56c0.2-0.22,0.36-0.45,0.48-0.71  c0.13-0.25,0.22-0.52,0.27-0.8c0.05-0.28,0.07-0.56,0.06-0.84c-0.01-0.2-0.03-0.4-0.08-0.62C19.19,56.95,19.15,56.74,19.09,56.54z"></path>	<path class="st4" d="M21.67,57.77c0.05-0.96,0.07-2.25,0.07-3.88c-0.01-1.01-0.09-2.09-0.24-3.25l-1.18,0.39  c0.1,1,0.18,2.13,0.23,3.38c0.04,0.96,0.01,2.14-0.08,3.55L21.67,57.77z"></path>			<rect x="32.24" y="59.01" transform="matrix(0.7071 -0.7071 0.7071 0.7071 -32.5158 40.6361)" class="st4" width="1.1" height="1.11"></rect>	<rect x="30.51" y="59" transform="matrix(0.7053 -0.7089 0.7089 0.7053 -33.0685 39.567)" class="st4" width="1.1" height="1.11"></rect>	<path class="st4" d="M43.41,55.69c-0.02-0.23-0.08-0.44-0.16-0.64c-0.08-0.2-0.19-0.38-0.31-0.54c-0.17-0.2-0.35-0.35-0.56-0.45  c-0.21-0.1-0.44-0.16-0.69-0.16c-0.21,0-0.41,0.05-0.6,0.15c-0.19,0.1-0.36,0.23-0.51,0.41c-0.1,0.13-0.19,0.27-0.28,0.43  c-0.09,0.16-0.17,0.32-0.25,0.48c-0.09,0.17-0.18,0.34-0.27,0.5c-0.1,0.17-0.21,0.32-0.33,0.45c-0.13,0.13-0.27,0.24-0.44,0.33  s-0.36,0.13-0.58,0.13h-4.16c-0.01,0-0.01,0-0.02,0c-0.01,0-0.01,0-0.02,0c-0.13,0-0.23-0.03-0.31-0.09  c-0.08-0.06-0.14-0.14-0.18-0.23s-0.08-0.2-0.09-0.31c-0.02-0.11-0.03-0.22-0.04-0.33c-0.01-0.14-0.02-0.27-0.03-0.39  c-0.01-0.12-0.02-0.23-0.04-0.34c-0.02-0.11-0.04-0.23-0.06-0.35c-0.02-0.12-0.06-0.25-0.1-0.4l-1.12,0.32  c0.04,0.14,0.08,0.26,0.11,0.37c0.03,0.11,0.06,0.21,0.08,0.3s0.03,0.17,0.04,0.25c0.01,0.08,0.01,0.16,0.01,0.24  c-0.01,0.21-0.06,0.38-0.17,0.5s-0.24,0.22-0.41,0.29c-0.17,0.07-0.36,0.11-0.58,0.13c-0.22,0.02-0.45,0.03-0.69,0.03h-0.31h-0.04  h-4.09h-0.02c-0.13,0-0.26-0.03-0.37-0.08s-0.22-0.15-0.33-0.28s-0.21-0.32-0.32-0.56c-0.11-0.23-0.22-0.53-0.34-0.89l-1.1,0.46  c0.04,0.12,0.09,0.26,0.15,0.41s0.12,0.31,0.17,0.47s0.11,0.34,0.16,0.51s0.09,0.35,0.11,0.52v0c0,0.02,0.01,0.05,0.01,0.08  c0,0.03,0,0.05,0,0.08c0,0.19-0.04,0.38-0.11,0.56c-0.07,0.18-0.17,0.36-0.29,0.53c-0.12,0.17-0.27,0.34-0.44,0.5  c-0.17,0.16-0.35,0.32-0.55,0.46c-0.2,0.15-0.4,0.28-0.62,0.41c-0.22,0.13-0.43,0.25-0.64,0.36l0.51,1.06  c0.39-0.19,0.77-0.42,1.14-0.67c0.37-0.26,0.7-0.54,1-0.85c0.3-0.31,0.54-0.64,0.74-0.99s0.31-0.72,0.35-1.11  c0.08,0.05,0.15,0.09,0.23,0.11c0.08,0.03,0.15,0.04,0.22,0.06c0.07,0.01,0.13,0.02,0.19,0.02c0.04,0,0.07,0,0.1,0c0,0,0,0,0,0  h4.13h0.04h0.31c0.21,0,0.43-0.01,0.65-0.03s0.43-0.05,0.64-0.09c0.21-0.04,0.4-0.1,0.57-0.16c0.18-0.07,0.33-0.15,0.46-0.25  c0.14,0.16,0.31,0.28,0.52,0.38c0.21,0.1,0.46,0.15,0.76,0.15c0,0,0.01,0,0.01,0c0,0,0.01,0,0.01,0h4.17c0,0,0,0,0,0  c0.18,0,0.34-0.02,0.5-0.05c0.16-0.03,0.31-0.08,0.45-0.14c0.14-0.06,0.28-0.14,0.41-0.24c0.13-0.09,0.25-0.2,0.37-0.31  c0.07,0.05,0.15,0.1,0.23,0.15c0.08,0.05,0.16,0.1,0.25,0.14s0.16,0.09,0.24,0.13s0.15,0.07,0.22,0.1c0.14,0.05,0.29,0.1,0.43,0.13  c0.14,0.03,0.28,0.05,0.41,0.05c0.07,0,0.14,0,0.21-0.01s0.13-0.02,0.2-0.04c0.2-0.06,0.39-0.17,0.56-0.33  c0.17-0.16,0.3-0.35,0.39-0.59c0.05-0.13,0.09-0.28,0.12-0.42s0.04-0.3,0.04-0.46C43.43,55.93,43.42,55.8,43.41,55.69L43.41,55.69z   M42.5,56.37c-0.02,0.07-0.04,0.14-0.06,0.19c-0.02,0.05-0.05,0.1-0.08,0.13s-0.06,0.05-0.09,0.06c-0.04,0.01-0.07,0.01-0.11,0.01  c-0.06,0-0.15-0.01-0.25-0.04s-0.22-0.06-0.34-0.11c-0.12-0.04-0.25-0.1-0.38-0.16s-0.24-0.13-0.34-0.2l0.19-0.4  c0.13-0.27,0.24-0.47,0.33-0.6c0.08-0.13,0.17-0.2,0.25-0.2c0.09,0,0.18,0.02,0.26,0.06s0.15,0.1,0.22,0.16  c0.07,0.07,0.12,0.14,0.18,0.22c0.05,0.08,0.1,0.16,0.13,0.24c0.04,0.08,0.06,0.15,0.08,0.22c0.02,0.07,0.03,0.12,0.03,0.16  C42.52,56.21,42.52,56.29,42.5,56.37z"></path>	<path class="st4" d="M60.71,54.43c-0.23-0.1-0.47-0.2-0.69-0.31c-0.23-0.11-0.46-0.21-0.69-0.31c-0.23-0.09-0.46-0.17-0.69-0.24  s-0.47-0.09-0.7-0.09c-0.23,0-0.45,0.04-0.65,0.12c-0.21,0.08-0.4,0.19-0.57,0.33s-0.34,0.29-0.48,0.46  c-0.14,0.17-0.27,0.35-0.37,0.54l0.95,0.62c0.01-0.02,0.03-0.06,0.06-0.11c0.03-0.05,0.07-0.11,0.12-0.18  c0.05-0.07,0.1-0.13,0.17-0.2c0.06-0.07,0.13-0.13,0.21-0.19c0.08-0.06,0.17-0.11,0.26-0.14s0.19-0.06,0.3-0.06  c0.18,0,0.37,0.03,0.56,0.1c0.19,0.07,0.38,0.15,0.58,0.24c0.2,0.09,0.42,0.19,0.64,0.28c0.23,0.1,0.47,0.17,0.73,0.23  c-0.33,0.16-0.68,0.32-1.05,0.47s-0.75,0.29-1.14,0.41c-0.39,0.12-0.78,0.21-1.17,0.28s-0.78,0.11-1.16,0.11h-0.9h-0.01h-4.15h0  h-4.13c-0.01,0-0.01,0-0.02,0h-0.04c-0.35,0-0.57-0.06-0.68-0.18c-0.05-0.05-0.08-0.12-0.09-0.23s-0.01-0.21-0.01-0.33  c0-0.09,0-0.19,0-0.28s0-0.18,0-0.28c0-0.09,0-0.19,0-0.3s0-0.21,0-0.33c0-0.07,0-0.14,0-0.22c0-0.08,0-0.17,0-0.25s0-0.17,0-0.26  c0-0.09,0-0.17,0-0.25c0-0.27,0-0.55-0.01-0.84c-0.01-0.29-0.02-0.58-0.04-0.87c-0.02-0.28-0.04-0.55-0.06-0.8  s-0.05-0.46-0.09-0.64l-1.15,0.34c0.03,0.14,0.05,0.31,0.07,0.49c0.02,0.18,0.04,0.38,0.05,0.59c0.01,0.21,0.02,0.43,0.03,0.66  c0.01,0.23,0.01,0.46,0.02,0.68c0,0.23,0.01,0.45,0.01,0.67s0,0.42,0,0.62c0,0.32,0,0.59-0.01,0.82c0,0.23-0.01,0.39-0.01,0.49  c0,0.08,0,0.17,0.01,0.28c0,0.11,0.02,0.22,0.05,0.34s0.07,0.25,0.13,0.37s0.14,0.25,0.25,0.36c0.18,0.18,0.4,0.31,0.66,0.4  c0.25,0.09,0.55,0.13,0.89,0.13c0,0,0,0,0.01,0h4.16h0.01h4.15h0.01h0.03h0.87c0.6-0.01,1.18-0.08,1.73-0.22  c0.55-0.13,1.08-0.29,1.59-0.49c0.51-0.2,0.99-0.41,1.46-0.64c0.46-0.23,0.91-0.45,1.34-0.65l0.1-1.18c-0.25,0-0.5-0.04-0.73-0.1  C61.18,54.61,60.94,54.53,60.71,54.43z"></path>	<path class="st4" d="M73.65,55.97c0.08-0.12,0.18-0.23,0.29-0.33c0.11-0.11,0.22-0.2,0.34-0.28s0.24-0.15,0.36-0.2  s0.23-0.08,0.33-0.09c0.17-0.03,0.35-0.04,0.52-0.01c0.17,0.02,0.34,0.07,0.5,0.14l0.42-1.1c-0.25-0.13-0.52-0.22-0.81-0.25  c-0.29-0.04-0.57-0.02-0.84,0.04c-0.33,0.07-0.64,0.2-0.93,0.39c-0.29,0.19-0.54,0.41-0.75,0.67c-0.21,0.26-0.38,0.55-0.51,0.87  c-0.13,0.32-0.2,0.65-0.21,0.98c0,0.31,0.05,0.56,0.14,0.76s0.22,0.37,0.38,0.5s0.35,0.24,0.57,0.32s0.46,0.15,0.72,0.22  c0.09,0.02,0.19,0.05,0.29,0.07c0.1,0.02,0.19,0.04,0.27,0.07c0.08,0.02,0.15,0.05,0.21,0.07c0.06,0.02,0.08,0.05,0.09,0.08  c-0.02,0.14-0.1,0.27-0.26,0.4s-0.36,0.25-0.62,0.35c-0.26,0.1-0.56,0.19-0.91,0.25s-0.73,0.09-1.14,0.09  c-0.42,0-0.79-0.05-1.11-0.15s-0.56-0.26-0.74-0.46c-0.09-0.1-0.16-0.2-0.22-0.32c-0.06-0.12-0.1-0.23-0.14-0.35  s-0.05-0.24-0.06-0.37c-0.01-0.12,0-0.24,0.01-0.36c0.03-0.22,0.06-0.42,0.1-0.62c0.04-0.19,0.08-0.39,0.13-0.58  c0.05-0.19,0.1-0.39,0.17-0.59c0.06-0.2,0.13-0.42,0.2-0.64l-1.01-0.41c-0.01,0.01-0.02,0.06-0.05,0.14  c-0.03,0.08-0.07,0.19-0.11,0.32c-0.04,0.13-0.09,0.28-0.14,0.46c-0.05,0.17-0.1,0.36-0.15,0.55c-0.05,0.19-0.09,0.39-0.14,0.6  s-0.08,0.41-0.1,0.62c-0.02,0.21-0.03,0.43-0.02,0.64s0.04,0.42,0.09,0.62c0.05,0.2,0.12,0.39,0.22,0.58  c0.09,0.18,0.21,0.36,0.35,0.52c0.3,0.33,0.68,0.59,1.14,0.76c0.46,0.17,0.99,0.26,1.59,0.26c0.51,0,0.99-0.05,1.43-0.14  c0.44-0.09,0.83-0.23,1.17-0.4h0c0.38-0.19,0.68-0.42,0.9-0.69c0.23-0.27,0.37-0.56,0.43-0.88c0.02-0.11,0.03-0.22,0.03-0.33  c0-0.25-0.05-0.44-0.14-0.6c-0.09-0.15-0.21-0.28-0.35-0.38c-0.15-0.1-0.31-0.17-0.49-0.23c-0.18-0.05-0.36-0.1-0.55-0.15  c-0.11-0.03-0.23-0.06-0.35-0.08c-0.12-0.03-0.23-0.06-0.34-0.1c-0.1-0.04-0.19-0.08-0.27-0.13c-0.08-0.05-0.13-0.11-0.15-0.18l0,0  c-0.02-0.08-0.04-0.16-0.04-0.23c0-0.12,0.02-0.24,0.07-0.36S73.56,56.08,73.65,55.97z"></path>			<rect x="78.19" y="52.29" transform="matrix(0.7049 -0.7093 0.7093 0.7049 -14.2478 71.4432)" class="st4" width="1.1" height="1.11"></rect>			<rect x="79.92" y="52.29" transform="matrix(0.7049 -0.7093 0.7093 0.7049 -13.7408 72.6754)" class="st4" width="1.1" height="1.11"></rect>			<rect x="79.1" y="51.02" transform="matrix(0.7071 -0.7071 0.7071 0.7071 -13.117 71.3827)" class="st4" width="1.01" height="1.02"></rect>	<path class="st4" d="M80.88,56.61c-0.03-0.14-0.06-0.28-0.09-0.42c-0.03-0.14-0.07-0.27-0.1-0.4c-0.08-0.3-0.17-0.59-0.28-0.89  l-1.15,0.37c0.04,0.13,0.09,0.29,0.15,0.46c0.06,0.17,0.12,0.35,0.17,0.54c0.06,0.19,0.1,0.38,0.14,0.57  c0.04,0.19,0.06,0.38,0.06,0.55c0,0.19-0.03,0.38-0.1,0.56s-0.16,0.36-0.28,0.53c-0.12,0.17-0.26,0.34-0.42,0.5  c-0.16,0.16-0.34,0.32-0.53,0.46c-0.19,0.15-0.39,0.29-0.6,0.42c-0.21,0.13-0.43,0.25-0.64,0.36l0.52,1.05  c0.27-0.13,0.54-0.29,0.81-0.46c0.27-0.17,0.52-0.35,0.76-0.55c0.24-0.2,0.46-0.4,0.66-0.62c0.2-0.22,0.38-0.45,0.53-0.69  c0.15-0.24,0.26-0.5,0.35-0.76c0.08-0.26,0.13-0.53,0.13-0.81c0-0.12-0.01-0.25-0.02-0.38S80.91,56.75,80.88,56.61z"></path>	<path class="st4" d="M84.91,56.61c-0.03-0.14-0.06-0.28-0.09-0.42c-0.03-0.14-0.07-0.27-0.1-0.4c-0.08-0.3-0.17-0.59-0.27-0.89  l-1.15,0.37c0.04,0.13,0.09,0.29,0.15,0.46c0.06,0.17,0.12,0.35,0.17,0.54c0.05,0.19,0.1,0.38,0.14,0.57  c0.04,0.19,0.06,0.38,0.06,0.55c0,0.19-0.03,0.38-0.1,0.56s-0.16,0.36-0.28,0.53s-0.26,0.34-0.42,0.5  c-0.16,0.16-0.34,0.32-0.53,0.46c-0.19,0.15-0.39,0.29-0.6,0.42c-0.21,0.13-0.43,0.25-0.64,0.36l0.52,1.05  c0.27-0.13,0.54-0.29,0.81-0.46c0.27-0.17,0.52-0.35,0.76-0.55c0.24-0.2,0.46-0.4,0.66-0.62c0.2-0.22,0.38-0.45,0.53-0.69  s0.26-0.5,0.35-0.76c0.08-0.26,0.13-0.53,0.13-0.81c0-0.12-0.01-0.25-0.02-0.38S84.94,56.75,84.91,56.61z"></path>	<polygon class="st4" points="96.65,55.75 96.65,55.74 96.65,55.75  "></polygon>	<path class="st4" d="M96.61,54.39l-0.03-0.92c-0.02-0.34-0.03-0.66-0.05-0.97c-0.02-0.31-0.04-0.58-0.06-0.83s-0.04-0.45-0.05-0.61  s-0.02-0.27-0.03-0.32l-1.18,0.25c0,0.03,0.01,0.12,0.03,0.25c0.02,0.14,0.03,0.32,0.05,0.54c0.02,0.22,0.04,0.48,0.05,0.77  c0.02,0.29,0.03,0.61,0.05,0.94c0.02,0.55,0.04,1.01,0.06,1.39c0.01,0.37,0.02,0.66,0.02,0.86c0,0.22-0.01,0.4-0.05,0.53  c-0.03,0.14-0.08,0.24-0.15,0.31h0c-0.12,0.12-0.33,0.18-0.64,0.18h-0.22h-0.04h0h-4.16H90c-0.01-0.23-0.04-0.45-0.09-0.67  s-0.11-0.43-0.19-0.63c-0.08-0.2-0.17-0.39-0.27-0.57c-0.1-0.18-0.22-0.34-0.35-0.48c-0.39-0.42-0.82-0.63-1.3-0.63  c-0.22,0-0.43,0.05-0.63,0.16c-0.2,0.11-0.39,0.27-0.55,0.48c-0.08,0.11-0.16,0.23-0.23,0.37c-0.07,0.13-0.13,0.28-0.19,0.43  c-0.05,0.15-0.1,0.31-0.12,0.47c-0.03,0.16-0.04,0.32-0.04,0.47c0,0.2,0.02,0.39,0.08,0.57c0.05,0.18,0.13,0.34,0.25,0.49  c0.17,0.21,0.38,0.37,0.66,0.49c0.27,0.12,0.58,0.19,0.92,0.21c0.06,0.01,0.13,0.01,0.2,0.01c0.08,0,0.16,0,0.24,0.01  s0.17,0,0.25,0s0.16,0,0.24,0c-0.06,0.21-0.17,0.42-0.33,0.62s-0.38,0.4-0.65,0.59s-0.58,0.35-0.94,0.5s-0.77,0.27-1.22,0.36  L86,61.17c0.46-0.07,0.91-0.2,1.34-0.37c0.43-0.17,0.81-0.4,1.16-0.67s0.64-0.59,0.89-0.95c0.25-0.36,0.42-0.77,0.53-1.22h0.3h0  h4.16h0h0.04h0.22c0.64,0,1.14-0.17,1.49-0.52c0.12-0.12,0.22-0.26,0.29-0.41c0.07-0.15,0.13-0.29,0.16-0.44  c0.04-0.15,0.06-0.3,0.07-0.44c0.01-0.14,0.01-0.28,0.01-0.4c0-0.14-0.01-0.32-0.01-0.54C96.63,54.98,96.62,54.71,96.61,54.39z   M88.71,56.78c-0.08,0-0.16,0-0.24,0s-0.16,0-0.24,0c-0.08,0-0.15-0.01-0.21-0.01c-0.12-0.01-0.23-0.03-0.35-0.06  c-0.12-0.03-0.22-0.06-0.32-0.12c-0.09-0.05-0.17-0.12-0.23-0.2s-0.09-0.19-0.09-0.32c0-0.12,0.03-0.25,0.08-0.38  c0.05-0.13,0.11-0.25,0.19-0.35c0.08-0.11,0.16-0.19,0.25-0.26s0.18-0.1,0.26-0.1s0.16,0.03,0.23,0.08  c0.08,0.06,0.14,0.11,0.19,0.17v0c0.07,0.08,0.14,0.17,0.22,0.27c0.08,0.11,0.15,0.22,0.22,0.36c0.07,0.13,0.12,0.27,0.17,0.43  c0.05,0.15,0.08,0.31,0.1,0.49C88.86,56.77,88.79,56.78,88.71,56.78z"></path>			<rect x="106.53" y="52.28" transform="matrix(0.7049 -0.7093 0.7093 0.7049 -5.8753 91.5451)" class="st4" width="1.1" height="1.11"></rect>			<rect x="104.79" y="52.27" transform="matrix(0.7049 -0.7093 0.7093 0.7049 -6.3829 90.3106)" class="st4" width="1.1" height="1.11"></rect>	<path class="st4" d="M121.48,55.68L121.48,55.68c-0.02-0.22-0.08-0.43-0.16-0.63c-0.08-0.2-0.19-0.38-0.31-0.54  c-0.17-0.2-0.35-0.35-0.56-0.45c-0.21-0.1-0.44-0.16-0.69-0.16c-0.21,0-0.41,0.05-0.6,0.15c-0.19,0.1-0.36,0.23-0.51,0.41  c-0.1,0.13-0.2,0.27-0.28,0.43c-0.09,0.16-0.17,0.32-0.25,0.48c-0.09,0.17-0.18,0.34-0.27,0.5c-0.1,0.17-0.21,0.32-0.33,0.45  s-0.27,0.24-0.44,0.33c-0.17,0.08-0.36,0.13-0.58,0.13h-4.16h-0.01h-4.16c-0.01,0-0.03,0.01-0.04,0.01c-0.01,0-0.03-0.01-0.04-0.01  c-0.13,0-0.23-0.03-0.31-0.09c-0.08-0.06-0.14-0.14-0.18-0.23s-0.08-0.2-0.09-0.31c-0.02-0.11-0.03-0.22-0.04-0.33  c-0.01-0.14-0.02-0.27-0.04-0.39c-0.01-0.12-0.02-0.23-0.04-0.34c-0.02-0.11-0.04-0.23-0.06-0.35c-0.03-0.12-0.06-0.25-0.1-0.4  l-1.12,0.32c0.04,0.14,0.08,0.26,0.11,0.37c0.03,0.11,0.06,0.21,0.08,0.3c0.02,0.09,0.03,0.17,0.04,0.25  c0.01,0.08,0.01,0.16,0.01,0.24c-0.01,0.21-0.07,0.38-0.17,0.5s-0.24,0.22-0.41,0.29c-0.17,0.07-0.36,0.11-0.58,0.13  c-0.22,0.02-0.45,0.03-0.69,0.03h-0.31h-0.04h-4.1c-0.01,0-0.01,0-0.02,0h-0.04c-0.35,0-0.57-0.06-0.68-0.18  c-0.05-0.05-0.08-0.12-0.09-0.23s-0.01-0.21-0.01-0.33c0-0.09,0-0.19,0-0.28s0-0.18,0-0.28c0-0.09,0-0.19,0-0.3s0-0.21,0-0.33  c0-0.07,0-0.14,0-0.22c0-0.08,0-0.17,0-0.25s0-0.17,0-0.26c0-0.09,0-0.17,0-0.25c0-0.27,0-0.55-0.01-0.84  c-0.01-0.29-0.02-0.58-0.04-0.87c-0.02-0.28-0.04-0.55-0.06-0.8s-0.05-0.46-0.09-0.64l-1.15,0.34c0.03,0.14,0.05,0.31,0.07,0.49  c0.02,0.18,0.04,0.38,0.05,0.59C97.99,52.36,98,52.58,98,52.8c0.01,0.23,0.01,0.46,0.02,0.68c0,0.23,0.01,0.45,0.01,0.67  s0,0.42,0,0.62c0,0.32,0,0.59-0.01,0.82c0,0.23-0.01,0.39-0.01,0.49c0,0.08,0,0.17,0.01,0.28c0,0.11,0.02,0.22,0.05,0.34  s0.07,0.25,0.13,0.37s0.14,0.25,0.25,0.36c0.18,0.18,0.4,0.31,0.66,0.4c0.25,0.09,0.55,0.13,0.89,0.13c0,0,0,0,0.01,0h4.13h0.04  h0.31c0.21,0,0.43-0.01,0.65-0.03s0.43-0.05,0.64-0.09c0.21-0.04,0.4-0.1,0.57-0.16c0.18-0.07,0.33-0.15,0.46-0.25  c0.14,0.16,0.31,0.28,0.52,0.38c0.21,0.1,0.46,0.15,0.76,0.15c0.01,0,0.02-0.01,0.04-0.01c0.01,0,0.02,0.01,0.04,0.01h4.16h0.01  h4.16c0,0,0,0,0,0c0.18,0,0.34-0.02,0.5-0.05c0.16-0.03,0.31-0.08,0.45-0.14c0.14-0.06,0.28-0.14,0.41-0.24  c0.13-0.09,0.25-0.2,0.37-0.31c0.07,0.05,0.15,0.1,0.23,0.15c0.08,0.05,0.16,0.1,0.25,0.14c0.08,0.05,0.16,0.09,0.24,0.13  c0.08,0.04,0.15,0.07,0.21,0.1c0.14,0.05,0.29,0.1,0.43,0.13s0.28,0.05,0.41,0.05c0.07,0,0.14,0,0.21-0.01  c0.07-0.01,0.13-0.02,0.2-0.04c0.2-0.06,0.39-0.17,0.56-0.33c0.17-0.16,0.3-0.35,0.39-0.59c0.05-0.13,0.09-0.28,0.12-0.42  s0.04-0.3,0.04-0.46C121.51,55.93,121.5,55.8,121.48,55.68z M120.58,56.37c-0.01,0.07-0.04,0.14-0.06,0.19s-0.05,0.1-0.08,0.13  c-0.03,0.03-0.06,0.05-0.09,0.06c-0.04,0.01-0.08,0.01-0.11,0.01c-0.06,0-0.15-0.01-0.25-0.04s-0.22-0.06-0.34-0.11  c-0.12-0.04-0.25-0.1-0.38-0.16s-0.24-0.13-0.34-0.2l0.19-0.4c0.13-0.27,0.24-0.47,0.33-0.6c0.08-0.13,0.17-0.2,0.25-0.2  c0.09,0,0.18,0.02,0.26,0.06s0.16,0.1,0.22,0.16c0.07,0.07,0.12,0.14,0.18,0.22c0.05,0.08,0.1,0.16,0.13,0.24  c0.04,0.08,0.06,0.15,0.08,0.22c0.02,0.07,0.03,0.12,0.03,0.16C120.6,56.21,120.59,56.29,120.58,56.37z"></path></g></svg>